# xmcd
#
# Track frame offsets: 
#        150
#        16303
#        34978
#        52803
#        64246
#        78734
#        96520
#        109772
#        121497
#        136197
#        156719
#
# Disc length: 2366 seconds
#
# Revision: 0
# Processed by: cddbd v1.5.2PL0 Copyright (c) Steve Scherf et al.
# Submitted via: ExactAudioCopyFreeDBPlugin 1.0
#
DISCID=9a093c0b
DTITLE=Triumphant Quartet - Yes
DYEAR=2019
DGENRE=Gospel
TTITLE0=Going There
TTITLE1=Even Me
TTITLE2=Eye of the Storm
TTITLE3=Yes
TTITLE4=What He's Done for Me
TTITLE5=Give You All the Glory
TTITLE6=Joy
TTITLE7=A Little Bit
TTITLE8=All Things Good
TTITLE9=Only God Knows
TTITLE10=We Believe
EXTD=
EXTT0=
EXTT1=
EXTT2=
EXTT3=
EXTT4=
EXTT5=
EXTT6=
EXTT7=
EXTT8=
EXTT9=
EXTT10=
PLAYORDER=
